<svg fill="#000000" xmlns="http://www.w3.org/2000/svg"  viewBox="0 0 80 80" width="80px" height="80px"><path d="M 61.179688 7.8027344 L 54.255859 17.75 C 53.993083 17.628156 53.718653 17.546351 53.4375 17.544922 C 53.30453 17.544246 53.171331 17.556975 53.041016 17.582031 C 52.519755 17.682257 52.037355 17.984293 51.732422 18.460938 L 51.728516 18.466797 L 38.306641 40.001953 C 38.275474 40.001584 38.284469 40.000069 38.251953 40 C 34.244852 39.9924 30.290433 41.874157 27.785156 45.394531 C 25.61367 48.446025 25.630826 52.635674 25.251953 57.070312 C 24.885483 61.359774 24.215084 65.886374 21.453125 70 L 7 70 L 7 72 L 22 72 A 1.0001 1.0001 0 0 0 22.164062 71.986328 C 25.958092 71.355323 31.227631 70.483812 36.222656 68.777344 C 41.217681 67.070875 45.993433 64.534414 48.675781 60.388672 C 51.022665 56.761844 51.627122 52.434852 50.302734 48.601562 L 66.558594 28.628906 L 66.5625 28.625 C 67.188572 27.843284 67.112337 26.715147 66.451172 26.007812 L 73.167969 16.357422 L 71.525391 15.214844 L 64.824219 24.841797 L 55.939453 18.832031 L 62.820312 8.9472656 L 61.179688 7.8027344 z M 68 13 A 1 1 0 0 0 67 14 A 1 1 0 0 0 68 15 A 1 1 0 0 0 69 14 A 1 1 0 0 0 68 13 z M 66.013672 16.162109 A 1 1 0 0 0 65.013672 17.162109 A 1 1 0 0 0 66.013672 18.162109 A 1 1 0 0 0 67.013672 17.162109 A 1 1 0 0 0 66.013672 16.162109 z M 64 19 A 1 1 0 0 0 63 20 A 1 1 0 0 0 64 21 A 1 1 0 0 0 65 20 A 1 1 0 0 0 64 19 z M 53.417969 19.539062 L 53.427734 19.546875 L 65 27.375 L 65 27.376953 L 61.996094 31.068359 A 1 1 0 0 0 62 31 A 1 1 0 0 0 61 30 A 1 1 0 0 0 60 31 A 1 1 0 0 0 61 32 A 1 1 0 0 0 61.267578 31.962891 L 49.21875 46.765625 A 1.0001 1.0001 0 0 0 49.003906 46.707031 L 40.349609 40.507812 L 53.417969 19.539062 z M 52 24 A 1 1 0 0 0 51 25 A 1 1 0 0 0 52 26 A 1 1 0 0 0 53 25 A 1 1 0 0 0 52 24 z M 55 26 A 1 1 0 0 0 54 27 A 1 1 0 0 0 55 28 A 1 1 0 0 0 56 27 A 1 1 0 0 0 55 26 z M 58 28 A 1 1 0 0 0 57 29 A 1 1 0 0 0 58 30 A 1 1 0 0 0 59 29 A 1 1 0 0 0 58 28 z M 38.248047 42 C 38.671776 42.0009 38.886719 42.027344 38.886719 42.027344 A 1.0001 1.0001 0 0 0 39.052734 42.039062 L 48.121094 48.535156 C 49.584539 51.923642 49.193434 55.910026 46.998047 59.302734 C 44.709395 62.839993 40.359897 65.250484 35.576172 66.884766 C 31.562227 68.256064 27.442896 69.026875 23.927734 69.630859 C 26.224617 65.49798 26.910821 61.141681 27.244141 57.240234 C 27.630017 52.723622 27.78055 48.850192 29.414062 46.554688 C 31.538785 43.569062 34.867148 41.993593 38.248047 42 z M 45.009766 51.830078 C 44.459766 51.830078 44 52.270313 44 52.820312 C 43.99 53.370313 44.428516 53.829844 44.978516 53.839844 L 44.990234 53.839844 C 45.540234 53.839844 45.99 53.399609 46 52.849609 C 46 52.299609 45.559766 51.840078 45.009766 51.830078 z M 44.037109 55.658203 C 43.649219 55.614609 43.261844 55.800156 43.058594 56.160156 C 42.779594 56.640156 42.950453 57.249297 43.439453 57.529297 C 43.590453 57.609297 43.760922 57.650391 43.919922 57.650391 C 44.269922 57.650391 44.608828 57.470391 44.798828 57.150391 L 44.798828 57.140625 C 45.067828 56.660625 44.898922 56.049297 44.419922 55.779297 C 44.297422 55.711797 44.166406 55.672734 44.037109 55.658203 z M 41.402344 58.626953 C 41.147469 58.594453 40.879656 58.660078 40.660156 58.830078 C 40.229156 59.170078 40.148516 59.790469 40.478516 60.230469 C 40.679516 60.490469 40.978297 60.619141 41.279297 60.619141 C 41.489297 60.619141 41.699672 60.550156 41.888672 60.410156 C 42.318672 60.070156 42.398359 59.439766 42.068359 59.009766 C 41.898359 58.789766 41.657219 58.659453 41.402344 58.626953 z M 37.794922 60.677734 C 37.664609 60.682578 37.533203 60.712031 37.408203 60.769531 L 37.419922 60.769531 C 36.919922 61.009531 36.700453 61.609375 36.939453 62.109375 C 37.109453 62.469375 37.470609 62.679688 37.849609 62.679688 C 37.990609 62.679688 38.139531 62.650078 38.269531 62.580078 C 38.769531 62.340078 38.977047 61.75 38.748047 61.25 C 38.568047 60.875 38.185859 60.663203 37.794922 60.677734 z M 34.203125 62.160156 C 34.073859 62.150156 33.940797 62.165937 33.810547 62.210938 C 33.281547 62.380937 32.999688 62.950703 33.179688 63.470703 C 33.309687 63.890703 33.710859 64.160156 34.130859 64.160156 C 34.230859 64.160156 34.339453 64.139375 34.439453 64.109375 L 34.439453 64.099609 C 34.960453 63.929609 35.251312 63.359844 35.070312 62.839844 C 34.942813 62.449844 34.590922 62.190156 34.203125 62.160156 z"/></svg>