<svg fill="#000000" xmlns="http://www.w3.org/2000/svg"  viewBox="0 0 80 80" width="80px" height="80px"><path d="M 11 13 C 8.8026661 13 7 14.802666 7 17 L 7 67 L 8 67 L 73 67 L 73 17 C 73 14.802666 71.197334 13 69 13 L 11 13 z M 11 15 L 69 15 C 70.116666 15 71 15.883334 71 17 L 71 24 L 71 65 L 9 65 L 9 24 L 9 17 C 9 16.860417 9.014681 16.724772 9.0410156 16.59375 C 9.2253582 15.676595 10.022917 15 11 15 z M 9 24 A 1 1 0 0 0 10 25 A 1 1 0 0 0 11 24 A 1 1 0 0 0 10 23 A 1 1 0 0 0 9 24 z M 71 24 A 1 1 0 0 0 70 23 A 1 1 0 0 0 69 24 A 1 1 0 0 0 70 25 A 1 1 0 0 0 71 24 z M 14 23 A 1 1 0 0 0 13 24 A 1 1 0 0 0 14 25 A 1 1 0 0 0 15 24 A 1 1 0 0 0 14 23 z M 18 23 A 1 1 0 0 0 17 24 A 1 1 0 0 0 18 25 A 1 1 0 0 0 19 24 A 1 1 0 0 0 18 23 z M 22 23 A 1 1 0 0 0 21 24 A 1 1 0 0 0 22 25 A 1 1 0 0 0 23 24 A 1 1 0 0 0 22 23 z M 26 23 A 1 1 0 0 0 25 24 A 1 1 0 0 0 26 25 A 1 1 0 0 0 27 24 A 1 1 0 0 0 26 23 z M 30 23 A 1 1 0 0 0 29 24 A 1 1 0 0 0 30 25 A 1 1 0 0 0 31 24 A 1 1 0 0 0 30 23 z M 34 23 A 1 1 0 0 0 33 24 A 1 1 0 0 0 34 25 A 1 1 0 0 0 35 24 A 1 1 0 0 0 34 23 z M 38 23 A 1 1 0 0 0 37 24 A 1 1 0 0 0 38 25 A 1 1 0 0 0 39 24 A 1 1 0 0 0 38 23 z M 42 23 A 1 1 0 0 0 41 24 A 1 1 0 0 0 42 25 A 1 1 0 0 0 43 24 A 1 1 0 0 0 42 23 z M 46 23 A 1 1 0 0 0 45 24 A 1 1 0 0 0 46 25 A 1 1 0 0 0 47 24 A 1 1 0 0 0 46 23 z M 50 23 A 1 1 0 0 0 49 24 A 1 1 0 0 0 50 25 A 1 1 0 0 0 51 24 A 1 1 0 0 0 50 23 z M 54 23 A 1 1 0 0 0 53 24 A 1 1 0 0 0 54 25 A 1 1 0 0 0 55 24 A 1 1 0 0 0 54 23 z M 58 23 A 1 1 0 0 0 57 24 A 1 1 0 0 0 58 25 A 1 1 0 0 0 59 24 A 1 1 0 0 0 58 23 z M 62 23 A 1 1 0 0 0 61 24 A 1 1 0 0 0 62 25 A 1 1 0 0 0 63 24 A 1 1 0 0 0 62 23 z M 66 23 A 1 1 0 0 0 65 24 A 1 1 0 0 0 66 25 A 1 1 0 0 0 67 24 A 1 1 0 0 0 66 23 z M 43.960938 31.486328 A 1.0001 1.0001 0 0 0 43.037109 32.230469 L 36.037109 57.230469 A 1.0001 1.0001 0 1 0 37.962891 57.769531 L 44.962891 32.769531 A 1.0001 1.0001 0 0 0 43.960938 31.486328 z M 30.037109 35.988281 A 1.0001 1.0001 0 0 0 29.199219 36.400391 L 22.75 45 L 29.199219 53.599609 A 1.0003905 1.0003905 0 1 0 30.800781 52.400391 L 25.25 45 L 30.800781 37.599609 A 1.0001 1.0001 0 0 0 30.037109 35.988281 z M 50.933594 35.990234 A 1.0001 1.0001 0 0 0 50.199219 37.599609 L 55.75 45 L 50.199219 52.400391 A 1.0003905 1.0003905 0 1 0 51.800781 53.599609 L 58.25 45 L 51.800781 36.400391 A 1.0001 1.0001 0 0 0 50.933594 35.990234 z"/></svg>