<svg fill="#000000" xmlns="http://www.w3.org/2000/svg"  viewBox="0 0 80 80" width="80px" height="80px"><path d="M 40 8.925781 L 11 20.316406 L 11 26 L 14 26 L 14 31 L 16 31 L 16 57 L 13 57 L 13 62 L 10 62 L 10 69 L 70 69 L 70 62 L 67 62 L 67 57 L 64 57 L 64 31 L 66 31 L 66 26 L 69 26 L 69 20.316406 Z M 40 11.074219 L 67 21.683594 L 67 24 L 64 24 L 64 29 L 62 29 L 62 59 L 65 59 L 65 64 L 68 64 L 68 67 L 12 67 L 12 64 L 15 64 L 15 59 L 18 59 L 18 29 L 16 29 L 16 24 L 13 24 L 13 21.683594 Z M 18 24 C 17.449219 24 17 24.449219 17 25 C 17 25.550781 17.449219 26 18 26 C 18.550781 26 19 25.550781 19 25 C 19 24.449219 18.550781 24 18 24 Z M 22 24 C 21.449219 24 21 24.449219 21 25 C 21 25.550781 21.449219 26 22 26 C 22.550781 26 23 25.550781 23 25 C 23 24.449219 22.550781 24 22 24 Z M 26 24 C 25.449219 24 25 24.449219 25 25 C 25 25.550781 25.449219 26 26 26 C 26.550781 26 27 25.550781 27 25 C 27 24.449219 26.550781 24 26 24 Z M 30 24 C 29.449219 24 29 24.449219 29 25 C 29 25.550781 29.449219 26 30 26 C 30.550781 26 31 25.550781 31 25 C 31 24.449219 30.550781 24 30 24 Z M 34 24 C 33.449219 24 33 24.449219 33 25 C 33 25.550781 33.449219 26 34 26 C 34.550781 26 35 25.550781 35 25 C 35 24.449219 34.550781 24 34 24 Z M 38 24 C 37.449219 24 37 24.449219 37 25 C 37 25.550781 37.449219 26 38 26 C 38.550781 26 39 25.550781 39 25 C 39 24.449219 38.550781 24 38 24 Z M 42 24 C 41.449219 24 41 24.449219 41 25 C 41 25.550781 41.449219 26 42 26 C 42.550781 26 43 25.550781 43 25 C 43 24.449219 42.550781 24 42 24 Z M 46 24 C 45.449219 24 45 24.449219 45 25 C 45 25.550781 45.449219 26 46 26 C 46.550781 26 47 25.550781 47 25 C 47 24.449219 46.550781 24 46 24 Z M 50 24 C 49.449219 24 49 24.449219 49 25 C 49 25.550781 49.449219 26 50 26 C 50.550781 26 51 25.550781 51 25 C 51 24.449219 50.550781 24 50 24 Z M 54 24 C 53.449219 24 53 24.449219 53 25 C 53 25.550781 53.449219 26 54 26 C 54.550781 26 55 25.550781 55 25 C 55 24.449219 54.550781 24 54 24 Z M 58 24 C 57.449219 24 57 24.449219 57 25 C 57 25.550781 57.449219 26 58 26 C 58.550781 26 59 25.550781 59 25 C 59 24.449219 58.550781 24 58 24 Z M 62 24 C 61.449219 24 61 24.449219 61 25 C 61 25.550781 61.449219 26 62 26 C 62.550781 26 63 25.550781 63 25 C 63 24.449219 62.550781 24 62 24 Z M 20 29 C 19.449219 29 19 29.449219 19 30 C 19 30.550781 19.449219 31 20 31 C 20.550781 31 21 30.550781 21 30 C 21 29.449219 20.550781 29 20 29 Z M 22 29 L 22 59 L 28 59 L 28 29 Z M 30 29 C 29.449219 29 29 29.449219 29 30 C 29 30.550781 29.449219 31 30 31 C 30.550781 31 31 30.550781 31 30 C 31 29.449219 30.550781 29 30 29 Z M 32 29 L 32 59 L 38 59 L 38 29 Z M 40 29 C 39.449219 29 39 29.449219 39 30 C 39 30.550781 39.449219 31 40 31 C 40.550781 31 41 30.550781 41 30 C 41 29.449219 40.550781 29 40 29 Z M 42 29 L 42 59 L 48 59 L 48 29 Z M 50 29 C 49.449219 29 49 29.449219 49 30 C 49 30.550781 49.449219 31 50 31 C 50.550781 31 51 30.550781 51 30 C 51 29.449219 50.550781 29 50 29 Z M 52 29 L 52 59 L 58 59 L 58 29 Z M 60 29 C 59.449219 29 59 29.449219 59 30 C 59 30.550781 59.449219 31 60 31 C 60.550781 31 61 30.550781 61 30 C 61 29.449219 60.550781 29 60 29 Z M 24 31 L 26 31 L 26 57 L 24 57 Z M 34 31 L 36 31 L 36 57 L 34 57 Z M 44 31 L 46 31 L 46 57 L 44 57 Z M 54 31 L 56 31 L 56 57 L 54 57 Z M 20 57 C 19.449219 57 19 57.449219 19 58 C 19 58.550781 19.449219 59 20 59 C 20.550781 59 21 58.550781 21 58 C 21 57.449219 20.550781 57 20 57 Z M 30 57 C 29.449219 57 29 57.449219 29 58 C 29 58.550781 29.449219 59 30 59 C 30.550781 59 31 58.550781 31 58 C 31 57.449219 30.550781 57 30 57 Z M 40 57 C 39.449219 57 39 57.449219 39 58 C 39 58.550781 39.449219 59 40 59 C 40.550781 59 41 58.550781 41 58 C 41 57.449219 40.550781 57 40 57 Z M 50 57 C 49.449219 57 49 57.449219 49 58 C 49 58.550781 49.449219 59 50 59 C 50.550781 59 51 58.550781 51 58 C 51 57.449219 50.550781 57 50 57 Z M 60 57 C 59.449219 57 59 57.449219 59 58 C 59 58.550781 59.449219 59 60 59 C 60.550781 59 61 58.550781 61 58 C 61 57.449219 60.550781 57 60 57 Z M 18 62 C 17.449219 62 17 62.449219 17 63 C 17 63.550781 17.449219 64 18 64 C 18.550781 64 19 63.550781 19 63 C 19 62.449219 18.550781 62 18 62 Z M 22 62 C 21.449219 62 21 62.449219 21 63 C 21 63.550781 21.449219 64 22 64 C 22.550781 64 23 63.550781 23 63 C 23 62.449219 22.550781 62 22 62 Z M 26 62 C 25.449219 62 25 62.449219 25 63 C 25 63.550781 25.449219 64 26 64 C 26.550781 64 27 63.550781 27 63 C 27 62.449219 26.550781 62 26 62 Z M 30 62 C 29.449219 62 29 62.449219 29 63 C 29 63.550781 29.449219 64 30 64 C 30.550781 64 31 63.550781 31 63 C 31 62.449219 30.550781 62 30 62 Z M 34 62 C 33.449219 62 33 62.449219 33 63 C 33 63.550781 33.449219 64 34 64 C 34.550781 64 35 63.550781 35 63 C 35 62.449219 34.550781 62 34 62 Z M 38 62 C 37.449219 62 37 62.449219 37 63 C 37 63.550781 37.449219 64 38 64 C 38.550781 64 39 63.550781 39 63 C 39 62.449219 38.550781 62 38 62 Z M 42 62 C 41.449219 62 41 62.449219 41 63 C 41 63.550781 41.449219 64 42 64 C 42.550781 64 43 63.550781 43 63 C 43 62.449219 42.550781 62 42 62 Z M 46 62 C 45.449219 62 45 62.449219 45 63 C 45 63.550781 45.449219 64 46 64 C 46.550781 64 47 63.550781 47 63 C 47 62.449219 46.550781 62 46 62 Z M 50 62 C 49.449219 62 49 62.449219 49 63 C 49 63.550781 49.449219 64 50 64 C 50.550781 64 51 63.550781 51 63 C 51 62.449219 50.550781 62 50 62 Z M 54 62 C 53.449219 62 53 62.449219 53 63 C 53 63.550781 53.449219 64 54 64 C 54.550781 64 55 63.550781 55 63 C 55 62.449219 54.550781 62 54 62 Z M 58 62 C 57.449219 62 57 62.449219 57 63 C 57 63.550781 57.449219 64 58 64 C 58.550781 64 59 63.550781 59 63 C 59 62.449219 58.550781 62 58 62 Z M 62 62 C 61.449219 62 61 62.449219 61 63 C 61 63.550781 61.449219 64 62 64 C 62.550781 64 63 63.550781 63 63 C 63 62.449219 62.550781 62 62 62 Z"/></svg>