<svg fill="#000000" xmlns="http://www.w3.org/2000/svg"  viewBox="0 0 80 80" width="80px" height="80px"><path d="M 8 13 L 8 18 L 5 18 L 5 68 L 40 68 L 40 66 L 7 66 L 7 27.53125 L 36 47.742188 C 38.398438 49.417969 41.601563 49.414063 44 47.742188 L 73 27.53125 L 73 52.34375 L 75 54.34375 L 75 18 L 72 18 L 72 13 Z M 10 15 L 70 15 L 70 18 L 10 18 Z M 7 20 L 73 20 L 73 25.09375 L 42.859375 46.101563 C 41.140625 47.300781 38.863281 47.300781 37.140625 46.101563 L 7 25.09375 Z M 12 32 C 11.449219 32 11 32.449219 11 33 C 11 33.550781 11.449219 34 12 34 C 12.550781 34 13 33.550781 13 33 C 13 32.449219 12.550781 32 12 32 Z M 68 32 C 67.449219 32 67 32.449219 67 33 C 67 33.550781 67.449219 34 68 34 C 68.550781 34 69 33.550781 69 33 C 69 32.449219 68.550781 32 68 32 Z M 12 36 C 11.449219 36 11 36.449219 11 37 C 11 37.550781 11.449219 38 12 38 C 12.550781 38 13 37.550781 13 37 C 13 36.449219 12.550781 36 12 36 Z M 68 36 C 67.449219 36 67 36.449219 67 37 C 67 37.550781 67.449219 38 68 38 C 68.550781 38 69 37.550781 69 37 C 69 36.449219 68.550781 36 68 36 Z M 12 40 C 11.449219 40 11 40.449219 11 41 C 11 41.550781 11.449219 42 12 42 C 12.550781 42 13 41.550781 13 41 C 13 40.449219 12.550781 40 12 40 Z M 68 40 C 67.449219 40 67 40.449219 67 41 C 67 41.550781 67.449219 42 68 42 C 68.550781 42 69 41.550781 69 41 C 69 40.449219 68.550781 40 68 40 Z M 12 44 C 11.449219 44 11 44.449219 11 45 C 11 45.550781 11.449219 46 12 46 C 12.550781 46 13 45.550781 13 45 C 13 44.449219 12.550781 44 12 44 Z M 68 44 C 67.449219 44 67 44.449219 67 45 C 67 45.550781 67.449219 46 68 46 C 68.550781 46 69 45.550781 69 45 C 69 44.449219 68.550781 44 68 44 Z M 62 45.585938 L 62 56 L 43 56 L 43 68 L 62 68 L 62 78.414063 L 78.414063 62 Z M 12 48 C 11.449219 48 11 48.449219 11 49 C 11 49.550781 11.449219 50 12 50 C 12.550781 50 13 49.550781 13 49 C 13 48.449219 12.550781 48 12 48 Z M 64 50.414063 L 75.585938 62 L 64 73.585938 L 64 66 L 45 66 L 45 58 L 64 58 Z M 12 52 C 11.449219 52 11 52.449219 11 53 C 11 53.550781 11.449219 54 12 54 C 12.550781 54 13 53.550781 13 53 C 13 52.449219 12.550781 52 12 52 Z M 12 56 C 11.449219 56 11 56.449219 11 57 C 11 57.550781 11.449219 58 12 58 C 12.550781 58 13 57.550781 13 57 C 13 56.449219 12.550781 56 12 56 Z M 12 60 C 11.449219 60 11 60.449219 11 61 C 11 61.550781 11.449219 62 12 62 C 12.550781 62 13 61.550781 13 61 C 13 60.449219 12.550781 60 12 60 Z M 16 60 C 15.449219 60 15 60.449219 15 61 C 15 61.550781 15.449219 62 16 62 C 16.550781 62 17 61.550781 17 61 C 17 60.449219 16.550781 60 16 60 Z M 20 60 C 19.449219 60 19 60.449219 19 61 C 19 61.550781 19.449219 62 20 62 C 20.550781 62 21 61.550781 21 61 C 21 60.449219 20.550781 60 20 60 Z M 24 60 C 23.449219 60 23 60.449219 23 61 C 23 61.550781 23.449219 62 24 62 C 24.550781 62 25 61.550781 25 61 C 25 60.449219 24.550781 60 24 60 Z M 28 60 C 27.449219 60 27 60.449219 27 61 C 27 61.550781 27.449219 62 28 62 C 28.550781 62 29 61.550781 29 61 C 29 60.449219 28.550781 60 28 60 Z M 32 60 C 31.449219 60 31 60.449219 31 61 C 31 61.550781 31.449219 62 32 62 C 32.550781 62 33 61.550781 33 61 C 33 60.449219 32.550781 60 32 60 Z M 36 60 C 35.449219 60 35 60.449219 35 61 C 35 61.550781 35.449219 62 36 62 C 36.550781 62 37 61.550781 37 61 C 37 60.449219 36.550781 60 36 60 Z"/></svg>