<svg fill="#000000" xmlns="http://www.w3.org/2000/svg"  viewBox="0 0 80 80" width="80px" height="80px"><path d="M 8 13 C 6.9069372 13 6 13.906937 6 15 L 6 56 C 6 57.093063 6.9069372 58 8 58 L 31 58 L 31 62 L 28 62 C 25.802666 62 24 63.802666 24 66 L 4 66 A 1.0001 1.0001 0 1 0 4 68 L 56.720703 68 L 71.212891 68 L 75 68 A 1.0001 1.0001 0 1 0 75 66 L 72.427734 66 L 75.914062 48.191406 A 1.0001 1.0001 0 0 0 74.933594 47 L 73.345703 47 C 74.771908 44.35491 75.933594 41.56089 75.933594 36.017578 C 75.933594 30.34405 74.314453 25.517578 74.314453 25.517578 A 1.0001 1.0001 0 0 0 73.314453 24.835938 A 1.0001 1.0001 0 0 0 72.792969 25.015625 C 72.792969 25.015625 72.326854 25.368099 72 25.611328 L 72 15 C 72 13.906937 71.093063 13 70 13 L 8 13 z M 8 15 L 70 15 L 70 27.230469 C 69.856129 27.354877 69.687707 27.5147 69.537109 27.648438 C 68.777176 20.937018 64.625 17.248047 64.625 17.248047 A 1.0001 1.0001 0 0 0 63.986328 17 A 1.0001 1.0001 0 0 0 63.326172 17.232422 C 63.326172 17.232422 58.363659 21.446756 58.275391 29.537109 C 56.560529 27.621465 55.158203 26.59375 55.158203 26.59375 A 1.0001 1.0001 0 0 0 54.599609 26.400391 A 1.0001 1.0001 0 0 0 53.607422 27.115234 C 53.607422 27.115234 52 32.434728 52 36.800781 C 52 39.24257 52.42914 43.438789 55.007812 47 L 53 47 A 1.0001 1.0001 0 0 0 52.019531 48.191406 L 52.611328 51.208984 A 1 1 0 0 0 52 51 A 1 1 0 0 0 52 53 A 1 1 0 0 0 52.863281 52.501953 L 53.548828 56 L 47 56 L 31 56 L 8 56 L 8 53 A 1 1 0 0 0 8 51 L 8 15 z M 63.955078 19.580078 C 64.876604 20.510252 67.563122 23.494448 67.658203 29.433594 C 65.873739 31.220732 63.975088 33.434878 62.513672 35.974609 C 61.84426 34.5053 61.068877 33.188286 60.267578 32.044922 L 60.267578 29.75 C 60.267578 23.433698 63.013391 20.492618 63.955078 19.580078 z M 28 27 L 28 37.902344 L 30.902344 35.849609 L 32.884766 39.744141 L 34.443359 38.964844 L 32.390625 35.142578 L 36 34.363281 L 28 27 z M 72.796875 27.621094 C 73.222801 29.153586 73.933594 32.044936 73.933594 36.017578 C 73.933594 41.943547 72.731631 44.062143 71.078125 47 L 61.763672 47 C 61.734603 46.252882 61.782705 45.066254 61.962891 43.806641 C 62.20332 42.125913 62.659739 40.2462 63.314453 38.773438 C 63.315046 38.772103 63.315813 38.770866 63.316406 38.769531 C 65.874668 33.016443 71.193971 28.835312 72.796875 27.621094 z M 55.128906 29.304688 C 55.869372 29.934572 57.083659 31.048714 58.330078 32.720703 A 1.0001 1.0001 0 0 0 58.638672 33.154297 C 59.608514 34.526937 60.568197 36.242794 61.328125 38.369141 C 60.659219 40.00385 60.224673 41.843634 59.984375 43.523438 C 59.793454 44.85807 59.710659 46.044584 59.753906 47 L 57.34375 47 A 1.0001 1.0001 0 0 0 57.132812 46.625 C 54.401632 43.487846 54 39.249338 54 36.800781 C 54 33.94783 54.694187 30.99635 55.128906 29.304688 z M 54.214844 49 L 73.71875 49 L 70.390625 66 L 57.544922 66 L 54.214844 49 z M 12 51 A 1 1 0 0 0 12 53 A 1 1 0 0 0 12 51 z M 16 51 A 1 1 0 0 0 16 53 A 1 1 0 0 0 16 51 z M 20 51 A 1 1 0 0 0 20 53 A 1 1 0 0 0 20 51 z M 24 51 A 1 1 0 0 0 24 53 A 1 1 0 0 0 24 51 z M 28 51 A 1 1 0 0 0 28 53 A 1 1 0 0 0 28 51 z M 32 51 A 1 1 0 0 0 32 53 A 1 1 0 0 0 32 51 z M 36 51 A 1 1 0 0 0 36 53 A 1 1 0 0 0 36 51 z M 40 51 A 1 1 0 0 0 40 53 A 1 1 0 0 0 40 51 z M 44 51 A 1 1 0 0 0 44 53 A 1 1 0 0 0 44 51 z M 48 51 A 1 1 0 0 0 48 53 A 1 1 0 0 0 48 51 z M 33 58 L 45 58 L 45 62 L 33 62 L 33 58 z M 47 58 L 53.939453 58 L 55.507812 66 L 54 66 C 54 63.802666 52.197334 62 50 62 L 47 62 L 47 58 z M 28 64 L 31 64 L 47 64 L 50 64 C 51.116666 64 52 64.883334 52 66 L 26 66 C 26 64.883334 26.883334 64 28 64 z"/></svg>