<svg fill="#000000" xmlns="http://www.w3.org/2000/svg"  viewBox="0 0 80 80" width="80px" height="80px"><path d="M 15 9 C 12.25 9 10 11.25 10 14 L 10 64 C 10 66.75 12.25 69 15 69 L 65 69 C 67.75 69 70 66.75 70 64 L 70 14 C 70 11.25 67.75 9 65 9 Z M 15 11 L 65 11 C 66.667969 11 68 12.332031 68 14 L 68 64 C 68 65.667969 66.667969 67 65 67 L 15 67 C 13.332031 67 12 65.667969 12 64 L 12 14 C 12 12.332031 13.332031 11 15 11 Z M 23.902344 16.984375 C 20.601563 16.984375 17.90625 19.679688 17.90625 22.972656 C 17.90625 26.269531 20.601563 28.964844 23.902344 28.964844 C 27.195313 28.964844 29.886719 26.269531 29.886719 22.972656 C 29.886719 19.679688 27.195313 16.984375 23.902344 16.984375 Z M 36 17 C 35.449219 17 35 17.449219 35 18 C 35 18.550781 35.449219 19 36 19 C 36.550781 19 37 18.550781 37 18 C 37 17.449219 36.550781 17 36 17 Z M 40 17 C 39.449219 17 39 17.449219 39 18 C 39 18.550781 39.449219 19 40 19 C 40.550781 19 41 18.550781 41 18 C 41 17.449219 40.550781 17 40 17 Z M 44 17 C 43.449219 17 43 17.449219 43 18 C 43 18.550781 43.449219 19 44 19 C 44.550781 19 45 18.550781 45 18 C 45 17.449219 44.550781 17 44 17 Z M 48 17 C 47.449219 17 47 17.449219 47 18 C 47 18.550781 47.449219 19 48 19 C 48.550781 19 49 18.550781 49 18 C 49 17.449219 48.550781 17 48 17 Z M 52 17 C 51.449219 17 51 17.449219 51 18 C 51 18.550781 51.449219 19 52 19 C 52.550781 19 53 18.550781 53 18 C 53 17.449219 52.550781 17 52 17 Z M 56 17 C 55.449219 17 55 17.449219 55 18 C 55 18.550781 55.449219 19 56 19 C 56.550781 19 57 18.550781 57 18 C 57 17.449219 56.550781 17 56 17 Z M 60 17 C 59.449219 17 59 17.449219 59 18 C 59 18.550781 59.449219 19 60 19 C 60.550781 19 61 18.550781 61 18 C 61 17.449219 60.550781 17 60 17 Z M 23.902344 18.984375 C 26.109375 18.984375 27.886719 20.761719 27.886719 22.972656 C 27.886719 25.1875 26.109375 26.964844 23.902344 26.964844 C 21.679688 26.964844 19.90625 25.1875 19.90625 22.972656 C 19.90625 20.761719 21.679688 18.984375 23.902344 18.984375 Z M 50.101563 30.058594 C 46.9375 30.058594 44.507813 31.289063 42.84375 32.867188 L 42.84375 30.746094 L 32.597656 30.746094 L 32.597656 60.421875 L 43.191406 60.421875 L 43.191406 45.734375 C 43.191406 43.992188 43.390625 42.359375 43.96875 41.308594 C 44.550781 40.253906 45.375 39.625 47.351563 39.625 C 49.246094 39.625 49.851563 40.289063 50.3125 41.453125 C 50.773438 42.621094 50.824219 44.363281 50.824219 45.960938 L 50.824219 60.421875 L 60.421875 60.421875 L 60.421875 58.421875 L 61.421875 59.421875 L 61.421875 44.242188 C 61.421875 40.441406 61.046875 36.972656 59.375 34.324219 C 57.703125 31.671875 54.675781 30.058594 50.101563 30.058594 Z M 18.59375 30.746094 L 18.59375 60.421875 L 29.203125 60.421875 L 29.203125 30.746094 Z M 50.101563 32.058594 C 54.238281 32.058594 56.371094 33.308594 57.683594 35.390625 C 58.996094 37.46875 59.421875 40.585938 59.421875 44.242188 L 59.421875 58.421875 L 52.824219 58.421875 L 52.824219 45.960938 C 52.824219 44.351563 52.84375 42.417969 52.171875 40.71875 C 51.503906 39.023438 49.871094 37.625 47.351563 37.625 C 44.851563 37.625 43.097656 38.742188 42.21875 40.34375 C 41.339844 41.941406 41.191406 43.863281 41.191406 45.734375 L 41.191406 58.421875 L 34.597656 58.421875 L 34.597656 32.746094 L 40.84375 32.746094 L 40.84375 36.527344 L 42.566406 36.527344 L 42.847656 35.996094 C 43.820313 34.15625 46.28125 32.058594 50.101563 32.058594 Z M 20.59375 32.746094 L 27.203125 32.746094 L 27.203125 58.421875 L 20.59375 58.421875 Z"/></svg>