<svg fill="#000000" xmlns="http://www.w3.org/2000/svg"  viewBox="0 0 80 80" width="80px" height="80px"><path d="M 40 10 C 36.144531 10 33 13.144531 33 17 C 33 20.855469 36.144531 24 40 24 C 43.855469 24 47 20.855469 47 17 C 47 13.144531 43.855469 10 40 10 Z M 40 12 C 42.773438 12 45 14.226563 45 17 C 45 19.773438 42.773438 22 40 22 C 37.226563 22 35 19.773438 35 17 C 35 14.226563 37.226563 12 40 12 Z M 36 26 C 31.59375 26 28 29.59375 28 34 L 28 39.269531 C 15.710938 44.074219 7 56.019531 7 70 L 9 70 C 9 65.523438 9.964844 61.285156 11.671875 57.441406 L 12.308594 57.5625 L 12.96875 56.957031 L 12.878906 56.066406 L 12.640625 55.808594 L 12.5625 55.75 L 12.484375 55.734375 C 15.808594 49.328125 21.308594 44.246094 28 41.433594 L 28 46.277344 L 27.828125 46.019531 L 26.9375 45.964844 L 26.640625 46.160156 L 26.566406 46.230469 L 26.265625 47.070313 L 26.753906 47.820313 L 27.652344 47.875 L 27.945313 47.679688 L 28 47.625 L 28 48.71875 C 28 51.097656 29.6875 53.15625 32.019531 53.625 L 33 53.820313 L 33 66 C 33 68.199219 34.800781 70 37 70 C 38.210938 70 39.265625 69.421875 40 68.5625 C 40.734375 69.421875 41.789063 70 43 70 C 45.199219 70 47 68.199219 47 66 L 47 53.820313 L 47.980469 53.625 C 50.3125 53.15625 52 51.097656 52 48.71875 L 52 47.625 L 52.054688 47.679688 L 52.910156 47.9375 L 53.636719 47.40625 L 53.640625 46.511719 L 53.433594 46.230469 L 53.359375 46.160156 L 52.5 45.898438 L 52 46.265625 L 52 41.410156 C 58.6875 44.222656 64.175781 49.3125 67.503906 55.714844 L 67.4375 55.75 L 67.359375 55.808594 L 66.964844 56.613281 L 67.375 57.410156 L 68.257813 57.558594 L 68.359375 57.503906 C 70.046875 61.328125 71 65.550781 71 70 L 73 70 C 73 56.019531 64.289063 44.074219 52 39.269531 L 52 34 C 52 29.59375 48.40625 26 44 26 Z M 36 28 L 44 28 C 47.324219 28 50 30.675781 50 34 L 50 48.71875 C 50 50.15625 48.996094 51.378906 47.589844 51.660156 L 46.976563 51.785156 C 46.875 51.328125 46.46875 51 46 51 C 45.449219 51 45 51.449219 45 52 C 45 52.058594 45.003906 52.117188 45.015625 52.175781 L 45 52.179688 L 45 66 C 45 67.117188 44.117188 68 43 68 C 41.882813 68 41 67.117188 41 66 C 41 65.449219 40.550781 65 40 65 C 39.449219 65 39 65.449219 39 66 C 39 67.117188 38.117188 68 37 68 C 35.882813 68 35 67.117188 35 66 L 35 52.179688 L 34.984375 52.175781 C 34.996094 52.117188 35 52.058594 35 52 C 35 51.449219 34.550781 51 34 51 C 33.53125 51 33.125 51.328125 33.027344 51.785156 L 32.410156 51.660156 C 31.003906 51.378906 30 50.15625 30 48.71875 L 30 34 C 30 30.675781 32.675781 28 36 28 Z M 34 35 C 33.449219 35 33 35.449219 33 36 C 33 36.550781 33.449219 37 34 37 C 34.550781 37 35 36.550781 35 36 C 35 35.449219 34.550781 35 34 35 Z M 46 35 C 45.449219 35 45 35.449219 45 36 C 45 36.550781 45.449219 37 46 37 C 46.550781 37 47 36.550781 47 36 C 47 35.449219 46.550781 35 46 35 Z M 34 39 C 33.449219 39 33 39.449219 33 40 C 33 40.550781 33.449219 41 34 41 C 34.550781 41 35 40.550781 35 40 C 35 39.449219 34.550781 39 34 39 Z M 46 39 C 45.449219 39 45 39.449219 45 40 C 45 40.550781 45.449219 41 46 41 C 46.550781 41 47 40.550781 47 40 C 47 39.449219 46.550781 39 46 39 Z M 34 43 C 33.449219 43 33 43.449219 33 44 C 33 44.550781 33.449219 45 34 45 C 34.550781 45 35 44.550781 35 44 C 35 43.449219 34.550781 43 34 43 Z M 46 43 C 45.449219 43 45 43.449219 45 44 C 45 44.550781 45.449219 45 46 45 C 46.550781 45 47 44.550781 47 44 C 47 43.449219 46.550781 43 46 43 Z M 34 47 C 33.449219 47 33 47.449219 33 48 C 33 48.550781 33.449219 49 34 49 C 34.550781 49 35 48.550781 35 48 C 35 47.449219 34.550781 47 34 47 Z M 46 47 C 45.449219 47 45 47.449219 45 48 C 45 48.550781 45.449219 49 46 49 C 46.550781 49 47 48.550781 47 48 C 47 47.449219 46.550781 47 46 47 Z M 55.40625 48.902344 L 54.621094 49.328125 L 54.492188 50.21875 L 54.660156 50.527344 L 54.722656 50.605469 L 55.535156 50.980469 L 56.324219 50.550781 L 56.453125 49.667969 L 56.285156 49.355469 L 56.222656 49.277344 Z M 24.9375 48.976563 L 24.042969 49.046875 L 23.777344 49.277344 L 23.714844 49.355469 L 23.53125 50.234375 L 24.121094 50.90625 L 25.011719 50.839844 L 25.277344 50.605469 L 25.339844 50.527344 L 25.527344 49.652344 Z M 61.175781 50.191406 L 60.855469 50.335938 L 60.769531 50.390625 L 60.328125 51.171875 L 60.691406 51.992188 L 61.5625 52.191406 L 61.886719 52.050781 L 61.96875 51.996094 L 62.410156 51.214844 L 62.046875 50.394531 Z M 18.257813 50.21875 L 17.636719 50.863281 L 17.777344 51.75 L 18.03125 51.996094 L 18.113281 52.050781 L 19 52.164063 L 19.625 51.519531 L 19.484375 50.636719 L 19.230469 50.390625 L 19.144531 50.335938 Z M 57.921875 52.265625 L 57.800781 52.308594 L 57.78125 52.296875 L 57.441406 52.40625 L 57.355469 52.453125 L 57.34375 52.46875 L 57.078125 52.5625 L 56.921875 53.0625 L 56.832031 53.183594 L 56.859375 53.257813 L 56.808594 53.417969 L 56.925781 53.75 L 56.972656 53.835938 L 57.0625 53.890625 L 57.105469 54.035156 L 57.453125 54.15625 L 57.71875 54.332031 L 57.84375 54.292969 L 57.953125 54.328125 L 58.285156 54.21875 L 58.375 54.171875 L 58.445313 54.078125 L 58.5625 54.035156 L 58.636719 53.8125 L 58.898438 53.445313 L 58.824219 53.210938 L 58.832031 53.183594 L 58.714844 52.847656 L 58.699219 52.824219 L 58.625 52.59375 L 58.179688 52.4375 Z M 22.433594 52.28125 L 21.964844 52.390625 L 21.660156 52.386719 L 21.582031 52.484375 L 21.5625 52.488281 L 21.335938 52.761719 L 21.285156 52.847656 L 21.28125 52.871094 L 21.109375 53.09375 L 21.25 53.597656 L 21.238281 53.746094 L 21.300781 53.796875 L 21.34375 53.957031 L 21.625 54.171875 L 21.714844 54.21875 L 21.816406 54.222656 L 21.929688 54.316406 L 22.277344 54.234375 L 22.609375 54.238281 L 22.6875 54.136719 L 22.800781 54.109375 L 23.027344 53.835938 L 23.074219 53.75 L 23.078125 53.632813 L 23.15625 53.53125 L 23.097656 53.308594 L 23.121094 52.855469 L 22.933594 52.695313 L 22.921875 52.667969 L 22.644531 52.453125 L 22.625 52.4375 Z M 40 53 C 39.449219 53 39 53.449219 39 54 C 39 54.550781 39.449219 55 40 55 C 40.550781 55 41 54.550781 41 54 C 41 53.449219 40.550781 53 40 53 Z M 54.148438 53.875 L 53.855469 53.921875 L 53.851563 53.917969 L 53.765625 53.941406 L 53.105469 54.546875 L 53.191406 55.4375 L 53.957031 55.902344 L 54.3125 55.863281 L 54.398438 55.839844 L 54.425781 55.832031 L 54.457031 55.820313 L 54.46875 55.816406 L 55.089844 55.171875 L 54.941406 54.289063 Z M 26.148438 53.917969 L 26.140625 53.941406 L 25.3125 54.042969 L 24.867188 54.824219 L 25.226563 55.644531 L 25.53125 55.816406 L 25.542969 55.820313 L 25.574219 55.832031 L 25.601563 55.839844 L 25.6875 55.863281 L 26.570313 55.699219 L 26.964844 54.890625 L 26.550781 54.09375 L 26.234375 53.941406 Z M 29.980469 54.832031 L 29.132813 55.125 L 28.863281 55.984375 L 29.386719 56.707031 L 29.722656 56.8125 L 29.824219 56.828125 L 30.667969 56.53125 L 30.9375 55.675781 L 30.414063 54.953125 L 30.078125 54.84375 Z M 50.019531 54.832031 L 49.921875 54.84375 L 49.179688 55.34375 L 49.136719 56.238281 L 49.828125 56.8125 L 50.175781 56.828125 L 50.277344 56.8125 L 51.019531 56.3125 L 51.0625 55.421875 L 50.375 54.847656 Z M 20.46875 55.917969 L 19.628906 56.226563 L 19.4375 56.523438 L 19.398438 56.613281 L 19.457031 57.511719 L 20.207031 58 L 21.046875 57.6875 L 21.242188 57.390625 L 21.28125 57.300781 L 21.222656 56.40625 Z M 59.878906 55.941406 L 59.007813 56.140625 L 58.640625 56.957031 L 58.71875 57.300781 L 58.757813 57.390625 L 59.4375 57.972656 L 60.3125 57.777344 L 60.679688 56.957031 L 60.601563 56.613281 L 60.5625 56.523438 Z M 40 57 C 39.449219 57 39 57.449219 39 58 C 39 58.550781 39.449219 59 40 59 C 40.550781 59 41 58.550781 41 58 C 41 57.449219 40.550781 57 40 57 Z M 64.523438 57.921875 L 64.191406 58.042969 L 64.105469 58.09375 L 63.617188 58.84375 L 63.925781 59.683594 L 64.78125 59.9375 L 65.113281 59.816406 L 65.203125 59.765625 L 65.6875 59.015625 L 65.378906 58.175781 Z M 14.914063 57.984375 L 14.332031 58.667969 L 14.53125 59.539063 L 14.796875 59.765625 L 14.886719 59.816406 L 15.78125 59.875 L 16.359375 59.191406 L 16.160156 58.320313 L 15.894531 58.09375 L 15.808594 58.042969 Z M 19.027344 59.785156 L 18.71875 59.945313 L 18.4375 59.953125 L 18.296875 60.160156 L 18.230469 60.199219 L 18.125 60.40625 L 17.929688 60.691406 L 18.214844 61.542969 L 18.503906 61.742188 L 18.59375 61.78125 L 18.796875 61.777344 L 19.019531 61.886719 L 19.265625 61.757813 L 19.488281 61.75 L 19.605469 61.582031 L 19.816406 61.472656 L 19.96875 61.15625 L 20 61.0625 L 19.992188 61.027344 L 20 61.015625 L 19.972656 60.9375 L 19.832031 60.183594 L 19.523438 60.03125 L 19.425781 59.964844 L 19.332031 59.921875 L 19.300781 59.921875 Z M 61.007813 59.832031 L 60.683594 59.917969 L 60.429688 59.941406 L 59.96875 60.710938 L 60 61.0625 L 60.03125 61.15625 L 60.183594 61.324219 L 60.234375 61.53125 L 60.453125 61.621094 L 60.636719 61.816406 L 60.875 61.792969 L 61.0625 61.871094 L 61.40625 61.78125 L 61.496094 61.742188 L 61.503906 61.730469 L 61.527344 61.730469 L 61.578125 61.636719 L 62.058594 61.042969 L 61.957031 60.644531 L 61.953125 60.609375 L 61.925781 60.515625 L 61.921875 60.511719 L 61.835938 60.175781 L 61.484375 60.03125 L 61.320313 59.855469 L 61.109375 59.875 Z M 40 61 C 39.449219 61 39 61.449219 39 62 C 39 62.550781 39.449219 63 40 63 C 40.550781 63 41 62.550781 41 62 C 41 61.449219 40.550781 61 40 61 Z M 57.292969 61.371094 L 56.941406 61.429688 L 56.847656 61.464844 L 56.234375 62.113281 L 56.382813 62.996094 L 57.179688 63.40625 L 57.527344 63.34375 L 57.621094 63.3125 L 58.238281 62.660156 L 58.089844 61.777344 Z M 23.058594 61.429688 L 22.167969 61.535156 L 21.71875 62.3125 L 22.074219 63.136719 L 22.378906 63.3125 L 22.472656 63.34375 L 23.359375 63.238281 L 23.8125 62.464844 L 23.453125 61.640625 L 23.152344 61.464844 Z M 53.441406 62.539063 L 53.09375 62.570313 L 52.996094 62.597656 L 52.328125 63.191406 L 52.40625 64.085938 L 53.167969 64.558594 L 53.519531 64.527344 L 53.613281 64.5 L 54.28125 63.90625 L 54.203125 63.011719 Z M 26.90625 62.570313 L 26.03125 62.75 L 25.644531 63.558594 L 26.066406 64.347656 L 26.386719 64.5 L 26.480469 64.527344 L 27.359375 64.347656 L 27.742188 63.539063 L 27.324219 62.75 L 27.003906 62.597656 Z M 30.824219 63.347656 L 29.96875 63.621094 L 29.671875 64.464844 L 30.175781 65.207031 L 30.507813 65.324219 L 30.609375 65.339844 L 31.460938 65.066406 L 31.753906 64.222656 L 31.253906 63.480469 L 30.921875 63.363281 Z M 49.175781 63.347656 L 49.078125 63.363281 L 48.347656 63.886719 L 48.332031 64.78125 L 49.042969 65.332031 L 49.390625 65.339844 L 49.492188 65.324219 L 50.21875 64.800781 L 50.234375 63.90625 L 49.53125 63.355469 Z M 18.125 63.816406 L 17.382813 64.324219 L 17.265625 64.65625 L 17.25 64.78125 L 17.25 64.816406 L 17.574219 65.652344 L 18.4375 65.890625 L 19.144531 65.339844 L 19.234375 65.027344 L 19.238281 65.003906 L 19.238281 64.988281 L 19.246094 64.964844 L 18.96875 64.109375 Z M 61.316406 63.90625 L 60.765625 64.609375 L 60.753906 64.964844 L 60.761719 64.988281 L 60.761719 65 L 60.765625 65.027344 L 60.777344 65.023438 L 61.234375 65.761719 L 62.125 65.839844 L 62.722656 65.171875 L 62.75 64.816406 L 62.75 64.78125 L 62.734375 64.65625 L 62.214844 63.925781 Z M 17.75 67.933594 L 17.078125 68.527344 L 17.003906 68.871094 L 17 68.96875 L 17.375 69.78125 L 18.253906 69.96875 L 18.925781 69.375 L 19 69.03125 L 19 68.929688 L 18.625 68.117188 Z M 61.6875 67.949219 L 61.046875 68.582031 L 61 68.929688 L 61 69.03125 L 61.425781 69.816406 L 62.3125 69.949219 L 62.949219 69.316406 L 63 68.96875 L 62.996094 68.871094 L 62.574219 68.082031 Z"/></svg>