<svg fill="#000000" xmlns="http://www.w3.org/2000/svg"  viewBox="0 0 80 80" width="160px" height="160px"><path d="M 29.015625 10 C 26.973229 10 25.34375 11.738375 25.34375 13.800781 L 25.34375 15.875 C 24.814776 16.099499 24.375251 16.497161 24.078125 17 L 9.421875 17 C 7.3853511 17 5.75 18.719692 5.75 20.771484 L 5.75 22.921875 L 5.75 26.316406 L 5.75 60.328125 C 5.75 62.344324 7.4056763 64 9.421875 64 L 33.675781 64 C 33.60328 65.270853 33.669075 66.34939 33.755859 67.113281 L 33.914062 68.5 L 35.175781 67.904297 C 36.17966 67.431173 39.445357 66.048422 43.529297 66.974609 C 47.045048 67.771958 49.217889 69.837354 50.023438 70.6875 L 50.75 71.453125 L 51.476562 70.6875 C 52.282111 69.837354 54.454952 67.771958 57.970703 66.974609 C 62.054643 66.048422 65.32034 67.431173 66.324219 67.904297 L 67.632812 68.521484 L 67.746094 67.078125 C 67.863945 65.584287 67.88774 62.811438 66.685547 59.644531 C 65.899938 57.574858 64.834113 55.980373 63.880859 54.824219 C 67.337398 53.441562 70.793624 52.058283 74.25 50.675781 L 74.25 61.416016 C 73.847287 61.69396 73.582031 62.130964 73.582031 62.626953 C 73.582031 62.685209 73.594593 62.740328 73.601562 62.796875 C 72.519491 63.34597 71.75 64.403542 71.75 65.671875 C 71.75 66.317551 71.964901 66.818804 72.21875 67.423828 C 72.472599 68.028852 72.795969 68.675729 73.117188 69.279297 C 73.759621 70.486432 74.398438 71.523438 74.398438 71.523438 L 75.25 72.910156 L 76.101562 71.523438 C 76.101562 71.523438 76.740379 70.486432 77.382812 69.279297 C 77.704031 68.675729 78.027401 68.028852 78.28125 67.423828 C 78.535099 66.818804 78.75 66.317551 78.75 65.671875 C 78.75 64.403542 77.980509 63.34597 76.898438 62.796875 C 76.905407 62.740379 76.917969 62.68514 76.917969 62.626953 C 76.917969 62.130964 76.652713 61.69396 76.25 61.416016 L 76.25 49.865234 A 1.0001 1.0001 0 0 0 76.152344 48.083984 C 72.351847 46.411547 68.550686 44.740554 64.75 43.068359 L 64.75 26.316406 L 64.75 22.921875 L 64.75 20.771484 C 64.75 18.719692 63.114649 17 61.078125 17 L 46.421875 17 C 46.124749 16.497161 45.685224 16.099499 45.15625 15.875 L 45.15625 13.800781 C 45.15625 11.738375 43.526771 10 41.484375 10 L 29.015625 10 z M 29.015625 12 L 41.484375 12 C 42.393979 12 43.15625 12.769187 43.15625 13.800781 L 43.15625 15.875 C 42.626588 16.09938 42.186091 16.496665 41.888672 17 L 28.611328 17 C 28.313909 16.496665 27.873412 16.09938 27.34375 15.875 L 27.34375 13.800781 C 27.34375 12.769187 28.106021 12 29.015625 12 z M 9.421875 19 L 61.078125 19 C 61.993601 19 62.75 19.761277 62.75 20.771484 L 62.75 22.921875 L 62.75 26.316406 C 62.75 28.346303 61.194671 29.9375 59.296875 29.9375 L 11.203125 29.9375 C 9.3050576 29.9375 7.75 28.347508 7.75 26.316406 L 7.75 22.921875 L 7.75 20.771484 C 7.75 19.761277 8.5063989 19 9.421875 19 z M 62.75 30.658203 L 62.75 42.1875 C 61.819041 41.777904 60.887984 41.368584 59.957031 40.958984 C 60.405381 40.860519 60.75 40.4768 60.75 40 C 60.75 39.45 60.3 39 59.75 39 C 59.2 39 58.75 39.45 58.75 40 C 58.75 40.1823 58.812307 40.344605 58.898438 40.492188 C 56.316397 39.356132 53.734235 38.220165 51.152344 37.083984 A 1.0001 1.0001 0 0 0 50.763672 37 A 1.0001 1.0001 0 0 0 50.347656 37.083984 C 42.014745 40.750945 33.680745 44.416945 25.347656 48.083984 A 1.0001 1.0001 0 0 0 25.378906 49.927734 C 29.26085 51.480419 33.143199 53.033015 37.025391 54.585938 C 36.356907 55.508495 35.654161 56.656099 35.056641 58.0625 C 34.95858 58.03014 34.858539 58 34.75 58 C 34.2 58 33.75 58.45 33.75 59 C 33.75 59.419408 34.012711 59.777872 34.380859 59.925781 C 34.166625 60.646087 34.019382 61.335706 33.90625 62 L 9.421875 62 C 8.4860737 62 7.75 61.263926 7.75 60.328125 L 7.75 30.660156 C 8.4554956 31.258335 9.3107491 31.673539 10.248047 31.845703 C 10.397835 31.935427 10.563629 32 10.75 32 C 10.870229 32 10.982827 31.970992 11.089844 31.931641 C 11.127927 31.932455 11.164849 31.9375 11.203125 31.9375 L 16.546875 31.9375 L 16.546875 32 C 16.546875 33.105 17.344125 34 18.328125 34 L 21 34 C 21.984 34 22.78125 33.105 22.78125 32 L 22.78125 31.9375 L 47.71875 31.9375 L 47.71875 32 C 47.71875 33.105 48.516 34 49.5 34 L 52.171875 34 C 53.155875 34 53.953125 33.105 53.953125 32 L 53.953125 31.9375 L 58.761719 31.9375 C 58.760294 31.959209 58.75 31.977947 58.75 32 C 58.75 32.55 59.2 33 59.75 33 C 60.3 33 60.75 32.55 60.75 32 C 60.75 31.908732 60.72045 31.826349 60.697266 31.742188 C 61.459717 31.532168 62.158065 31.160183 62.75 30.658203 z M 10.75 34 C 10.2 34 9.75 34.45 9.75 35 C 9.75 35.55 10.2 36 10.75 36 C 11.3 36 11.75 35.55 11.75 35 C 11.75 34.45 11.3 34 10.75 34 z M 59.75 35 C 59.2 35 58.75 35.45 58.75 36 C 58.75 36.55 59.2 37 59.75 37 C 60.3 37 60.75 36.55 60.75 36 C 60.75 35.45 60.3 35 59.75 35 z M 10.75 38 C 10.2 38 9.75 38.45 9.75 39 C 9.75 39.55 10.2 40 10.75 40 C 11.3 40 11.75 39.55 11.75 39 C 11.75 38.45 11.3 38 10.75 38 z M 50.75 39.09375 C 58.222386 42.381989 65.695611 45.668969 73.167969 48.957031 C 65.695483 51.945933 58.222305 54.93507 50.75 57.923828 C 43.277695 54.93507 35.804517 51.945933 28.332031 48.957031 C 35.804389 45.668969 43.277614 42.381989 50.75 39.09375 z M 10.75 42 C 10.2 42 9.75 42.45 9.75 43 C 9.75 43.55 10.2 44 10.75 44 C 11.3 44 11.75 43.55 11.75 43 C 11.75 42.45 11.3 42 10.75 42 z M 10.75 46 C 10.2 46 9.75 46.45 9.75 47 C 9.75 47.55 10.2 48 10.75 48 C 11.3 48 11.75 47.55 11.75 47 C 11.75 46.45 11.3 46 10.75 46 z M 35.730469 48.001953 C 35.342344 48.012219 34.977812 48.248359 34.820312 48.630859 C 34.620313 49.140859 34.870859 49.719687 35.380859 49.929688 C 35.500859 49.978688 35.63 50 35.75 50 C 36.15 50 36.519688 49.759141 36.679688 49.369141 C 36.879687 48.858141 36.629141 48.279359 36.119141 48.068359 C 35.991641 48.018609 35.859844 47.998531 35.730469 48.001953 z M 39.441406 49.484375 C 39.053281 49.49 38.686797 49.726875 38.529297 50.109375 C 38.329297 50.630375 38.579844 51.210156 39.089844 51.410156 C 39.209844 51.460156 39.340938 51.490234 39.460938 51.490234 C 39.860938 51.490234 40.240625 51.250375 40.390625 50.859375 C 40.600625 50.339375 40.350078 49.758594 39.830078 49.558594 C 39.702578 49.506094 39.570781 49.4825 39.441406 49.484375 z M 10.75 50 C 10.2 50 9.75 50.439 9.75 51 C 9.75 51.55 10.2 52 10.75 52 C 11.3 52 11.75 51.55 11.75 51 C 11.75 50.439 11.3 50 10.75 50 z M 43.160156 50.96875 C 42.769688 50.97625 42.4 51.209609 42.25 51.599609 C 42.04 52.109609 42.290547 52.688437 42.810547 52.898438 C 42.930547 52.949437 43.049687 52.96975 43.179688 52.96875 C 43.569688 52.96875 43.949375 52.729844 44.109375 52.339844 C 44.309375 51.829844 44.060781 51.249063 43.550781 51.039062 C 43.423281 50.989062 43.290312 50.96625 43.160156 50.96875 z M 46.871094 52.455078 C 46.482969 52.460328 46.118437 52.696828 45.960938 53.080078 C 45.760938 53.600078 46.009531 54.180859 46.519531 54.380859 C 46.639531 54.430859 46.770625 54.460937 46.890625 54.460938 C 47.290625 54.460937 47.660313 54.220078 47.820312 53.830078 C 48.020312 53.309078 47.779766 52.728297 47.259766 52.529297 C 47.132266 52.476547 47.000469 52.453328 46.871094 52.455078 z M 50.585938 53.939453 C 50.194063 53.949297 49.829688 54.185859 49.679688 54.568359 C 49.469688 55.079359 49.720469 55.659141 50.230469 55.869141 C 50.360469 55.919141 50.479609 55.939453 50.599609 55.939453 C 50.999609 55.939453 51.379297 55.699594 51.529297 55.308594 C 51.739297 54.798594 51.490469 54.219766 50.980469 54.009766 C 50.850469 53.959766 50.716563 53.936172 50.585938 53.939453 z M 10.75 54 C 10.2 54 9.75 54.45 9.75 55 C 9.75 55.55 10.2 56 10.75 56 C 11.3 56 11.75 55.55 11.75 55 C 11.75 54.45 11.3 54 10.75 54 z M 38.941406 55.353516 C 42.753893 56.878555 46.566631 58.402916 50.378906 59.927734 A 1.0001 1.0001 0 0 0 51.121094 59.927734 C 54.720665 58.487992 58.320152 57.04737 61.919922 55.607422 C 62.85346 56.647401 64.002662 58.216818 64.814453 60.355469 C 65.6241 62.488303 65.744222 64.243044 65.738281 65.625 C 64.021965 64.973499 61.28061 64.174639 57.529297 65.025391 C 54.034908 65.817894 51.929918 67.568062 50.75 68.701172 C 49.570082 67.568062 47.465092 65.817894 43.970703 65.025391 C 40.193117 64.16868 37.430786 64.983281 35.722656 65.636719 C 35.645506 64.036514 35.705886 61.909687 36.683594 59.357422 C 37.337783 57.650546 38.186069 56.330135 38.941406 55.353516 z M 10.75 58 C 10.2 58 9.75 58.45 9.75 59 C 9.75 59.55 10.2 60 10.75 60 C 11.3 60 11.75 59.55 11.75 59 C 11.75 58.45 11.3 58 10.75 58 z M 14.75 58 C 14.2 58 13.75 58.45 13.75 59 C 13.75 59.55 14.2 60 14.75 60 C 15.3 60 15.75 59.55 15.75 59 C 15.75 58.45 15.3 58 14.75 58 z M 18.75 58 C 18.2 58 17.75 58.45 17.75 59 C 17.75 59.55 18.2 60 18.75 60 C 19.3 60 19.75 59.55 19.75 59 C 19.75 58.45 19.3 58 18.75 58 z M 22.75 58 C 22.2 58 21.75 58.45 21.75 59 C 21.75 59.55 22.2 60 22.75 60 C 23.3 60 23.75 59.55 23.75 59 C 23.75 58.45 23.3 58 22.75 58 z M 26.75 58 C 26.2 58 25.75 58.45 25.75 59 C 25.75 59.55 26.2 60 26.75 60 C 27.3 60 27.75 59.55 27.75 59 C 27.75 58.45 27.3 58 26.75 58 z M 30.75 58 C 30.2 58 29.75 58.45 29.75 59 C 29.75 59.55 30.2 60 30.75 60 C 31.3 60 31.75 59.55 31.75 59 C 31.75 58.45 31.3 58 30.75 58 z M 75.25 64.388672 C 76.137638 64.388672 76.75 65.002469 76.75 65.671875 C 76.75 65.656695 76.6524 66.138196 76.4375 66.650391 C 76.222599 67.162585 75.920969 67.769036 75.617188 68.339844 C 75.433971 68.684105 75.417065 68.689962 75.25 68.984375 C 75.082935 68.689962 75.066029 68.684105 74.882812 68.339844 C 74.579031 67.769036 74.277401 67.162585 74.0625 66.650391 C 73.847599 66.138196 73.75 65.656699 73.75 65.671875 C 73.75 65.002469 74.362362 64.388672 75.25 64.388672 z"/></svg>