<svg xmlns="http://www.w3.org/2000/svg"  viewBox="0 0 128 128" width="128px" height="128px"><path fill="#fff" d="M96.1,63.9l-30-30c-1.2-1.2-3.1-1.2-4.2,0l-30,30c-1.2,1.2-1.2,3.1,0,4.2c1.2,1.2,3.1,1.2,4.2,0L64,40.2	l27.9,27.9c0.6,0.6,1.4,0.9,2.1,0.9s1.5-0.3,2.1-0.9C97.3,67,97.3,65,96.1,63.9z"/><path fill="#fff" d="M66.1,59.9c-1.2-1.2-3.1-1.2-4.2,0l-30,30c-1.2,1.2-1.2,3.1,0,4.2c1.2,1.2,3.1,1.2,4.2,0L64,66.2l27.9,27.9	c0.6,0.6,1.4,0.9,2.1,0.9s1.5-0.3,2.1-0.9c1.2-1.2,1.2-3.1,0-4.2L66.1,59.9z"/></svg>