<svg fill="#000000" xmlns="http://www.w3.org/2000/svg"  viewBox="0 0 80 80" width="80px" height="80px"><path d="M 31 6 C 28.802937 6 27 7.8029372 27 10 L 27 21 C 27 23.197063 28.802937 25 31 25 L 32 25 L 32 30.070312 L 37.070312 25 L 49 25 C 51.197063 25 53 23.197063 53 21 L 53 10 C 53 7.8029372 51.197063 6 49 6 L 31 6 z M 31 8 L 49 8 C 50.114937 8 51 8.8850628 51 10 L 51 21 C 51 22.114937 50.114937 23 49 23 L 36.242188 23 L 34 25.242188 L 34 23 L 31 23 C 29.885063 23 29 22.114937 29 21 L 29 10 C 29 8.8850628 29.885063 8 31 8 z M 46.292969 10.292969 L 39 17.585938 L 35.707031 14.292969 L 34.292969 15.707031 L 39 20.414062 L 47.707031 11.707031 L 46.292969 10.292969 z M 17 26 C 12.592874 26 9 29.592874 9 34 C 9 38.407126 12.592874 42 17 42 C 21.407126 42 25 38.407126 25 34 L 25 33 L 24.796875 33 C 24.282076 29.084164 21.052768 26 17 26 z M 61 26 C 56.592874 26 53 29.592874 53 34 C 53 38.407126 56.592874 42 61 42 C 61.275445 42 61.548001 41.986375 61.816406 41.958984 C 63.695246 41.767248 65.384373 40.920314 66.652344 39.652344 C 68.101453 38.203235 69 36.203563 69 34 L 69 33 L 68.796875 33 C 68.282076 29.084164 65.052768 26 61 26 z M 17 28 C 20.326874 28 23 30.673126 23 34 C 23 37.326874 20.326874 40 17 40 C 13.673126 40 11 37.326874 11 34 C 11 30.673126 13.673126 28 17 28 z M 61 28 C 64.326874 28 67 30.673126 67 34 C 67 37.326874 64.326874 40 61 40 C 57.673126 40 55 37.326874 55 34 C 55 33.79207 55.010859 33.587095 55.03125 33.384766 C 55.337112 30.349828 57.881056 28 61 28 z M 39 33 C 34.041484 33 30 37.041484 30 42 C 30 46.958516 34.041484 51 39 51 C 43.958516 51 48 46.958516 48 42 L 48 41 L 47.796875 41 C 47.275261 36.532432 43.604108 33 39 33 z M 39 35 C 42.877484 35 46 38.122516 46 42 C 46 45.877484 42.877484 49 39 49 C 35.122516 49 32 45.877484 32 42 C 32 38.122516 35.122516 35 39 35 z M 17 44 C 9.3062063 44 3 50.306206 3 58 L 3 62 L 25.269531 62 C 24.457834 63.84109 24 65.868987 24 68 L 24 72 L 54 72 L 54 69 L 54 68 C 54 65.868987 53.542166 63.84109 52.730469 62 L 75 62 L 75 58 C 75 50.306206 68.693794 44 61 44 C 54.158556 44 48.446319 48.988522 47.257812 55.503906 C 44.884282 53.926028 42.045242 53 39 53 C 35.954758 53 33.115718 53.926028 30.742188 55.503906 C 29.553681 48.988522 23.841444 44 17 44 z M 17 46 C 23.245162 46 28.37815 50.832416 28.921875 56.941406 C 27.934708 57.842395 27.067924 58.868215 26.347656 60 L 5 60 L 5 58 C 5 51.397794 10.397794 46 17 46 z M 61 46 C 67.602206 46 73 51.397794 73 58 L 73 60 L 51.652344 60 C 50.932076 58.868215 50.065292 57.842395 49.078125 56.941406 C 49.62185 50.832416 54.754838 46 61 46 z M 39 55 C 46.153388 55 52 60.846612 52 68 L 52 70 L 26 70 L 26 68 C 26 60.846612 31.846612 55 39 55 z M 7 56 C 6.449 56 6 56.449 6 57 C 6 57.551 6.449 58 7 58 C 7.551 58 8 57.551 8 57 C 8 56.449 7.551 56 7 56 z M 11 56 C 10.449 56 10 56.449 10 57 C 10 57.551 10.449 58 11 58 C 11.551 58 12 57.551 12 57 C 12 56.449 11.551 56 11 56 z M 15 56 C 14.449 56 14 56.449 14 57 C 14 57.551 14.449 58 15 58 C 15.551 58 16 57.551 16 57 C 16 56.449 15.551 56 15 56 z M 19 56 C 18.449 56 18 56.449 18 57 C 18 57.551 18.449 58 19 58 C 19.551 58 20 57.551 20 57 C 20 56.449 19.551 56 19 56 z M 23 56 C 22.449 56 22 56.449 22 57 C 22 57.551 22.449 58 23 58 C 23.551 58 24 57.551 24 57 C 24 56.449 23.551 56 23 56 z M 27 56 C 26.449 56 26 56.449 26 57 C 26 57.551 26.449 58 27 58 C 27.551 58 28 57.551 28 57 C 28 56.449 27.551 56 27 56 z M 51 56 C 50.449 56 50 56.449 50 57 C 50 57.551 50.449 58 51 58 C 51.551 58 52 57.551 52 57 C 52 56.449 51.551 56 51 56 z M 55 56 C 54.449 56 54 56.449 54 57 C 54 57.551 54.449 58 55 58 C 55.551 58 56 57.551 56 57 C 56 56.449 55.551 56 55 56 z M 59 56 C 58.449 56 58 56.449 58 57 C 58 57.551 58.449 58 59 58 C 59.551 58 60 57.551 60 57 C 60 56.449 59.551 56 59 56 z M 63 56 C 62.449 56 62 56.449 62 57 C 62 57.551 62.449 58 63 58 C 63.551 58 64 57.551 64 57 C 64 56.449 63.551 56 63 56 z M 67 56 C 66.449 56 66 56.449 66 57 C 66 57.551 66.449 58 67 58 C 67.551 58 68 57.551 68 57 C 68 56.449 67.551 56 67 56 z M 71 56 C 70.449 56 70 56.449 70 57 C 70 57.551 70.449 58 71 58 C 71.551 58 72 57.551 72 57 C 72 56.449 71.551 56 71 56 z M 29 66 C 28.449 66 28 66.449 28 67 C 28 67.551 28.449 68 29 68 C 29.551 68 30 67.551 30 67 C 30 66.449 29.551 66 29 66 z M 33 66 C 32.449 66 32 66.449 32 67 C 32 67.551 32.449 68 33 68 C 33.551 68 34 67.551 34 67 C 34 66.449 33.551 66 33 66 z M 37 66 C 36.449 66 36 66.449 36 67 C 36 67.551 36.449 68 37 68 C 37.551 68 38 67.551 38 67 C 38 66.449 37.551 66 37 66 z M 41 66 C 40.449 66 40 66.449 40 67 C 40 67.551 40.449 68 41 68 C 41.551 68 42 67.551 42 67 C 42 66.449 41.551 66 41 66 z M 45 66 C 44.449 66 44 66.449 44 67 C 44 67.551 44.449 68 45 68 C 45.551 68 46 67.551 46 67 C 46 66.449 45.551 66 45 66 z M 49 66 C 48.449 66 48 66.449 48 67 C 48 67.551 48.449 68 49 68 C 49.551 68 50 67.551 50 67 C 50 66.449 49.551 66 49 66 z"/></svg>