<svg fill="#000000" xmlns="http://www.w3.org/2000/svg"  viewBox="0 0 80 80" width="80px" height="80px"><path d="M 31 6 C 28.800781 6 27 7.800781 27 10 L 27 13 L 29 13 L 29 10 C 29 8.882813 29.882813 8 31 8 L 32.277344 8 C 32.625 8.59375 33.261719 9 34 9 L 46 9 C 46.738281 9 47.375 8.59375 47.722656 8 L 49 8 C 50.117188 8 51 8.882813 51 10 L 51 13 L 53 13 L 53 10 C 53 7.800781 51.199219 6 49 6 Z M 52 13 C 50.695313 13 49.597656 13.835938 49.183594 15 L 30.816406 15 C 30.402344 13.835938 29.304688 13 28 13 C 26.695313 13 25.597656 13.835938 25.183594 15 L 9 15 C 6.800781 15 5 16.800781 5 19 L 5 63 C 5 65.199219 6.800781 67 9 67 L 10 67 L 10 68 L 15 68 L 15 67 L 65 67 L 65 68 L 70 68 L 70 67 L 71 67 C 73.199219 67 75 65.199219 75 63 L 75 19 C 75 16.800781 73.199219 15 71 15 L 54.816406 15 C 54.402344 13.835938 53.304688 13 52 13 Z M 9 17 L 71 17 C 72.117188 17 73 17.882813 73 19 L 73 63 C 73 64.117188 72.117188 65 71 65 L 9 65 C 7.882813 65 7 64.117188 7 63 L 7 19 C 7 17.882813 7.882813 17 9 17 Z M 22 23 C 21.449219 23 21 23.449219 21 24 C 21 24.550781 21.449219 25 22 25 C 22.550781 25 23 24.550781 23 24 C 23 23.449219 22.550781 23 22 23 Z M 34 23 C 33.449219 23 33 23.449219 33 24 C 33 24.550781 33.449219 25 34 25 C 34.550781 25 35 24.550781 35 24 C 35 23.449219 34.550781 23 34 23 Z M 46 23 C 45.449219 23 45 23.449219 45 24 C 45 24.550781 45.449219 25 46 25 C 46.550781 25 47 24.550781 47 24 C 47 23.449219 46.550781 23 46 23 Z M 58 23 C 57.449219 23 57 23.449219 57 24 C 57 24.550781 57.449219 25 58 25 C 58.550781 25 59 24.550781 59 24 C 59 23.449219 58.550781 23 58 23 Z M 22 27 C 21.449219 27 21 27.449219 21 28 C 21 28.550781 21.449219 29 22 29 C 22.550781 29 23 28.550781 23 28 C 23 27.449219 22.550781 27 22 27 Z M 34 27 C 33.449219 27 33 27.449219 33 28 C 33 28.550781 33.449219 29 34 29 C 34.550781 29 35 28.550781 35 28 C 35 27.449219 34.550781 27 34 27 Z M 46 27 C 45.449219 27 45 27.449219 45 28 C 45 28.550781 45.449219 29 46 29 C 46.550781 29 47 28.550781 47 28 C 47 27.449219 46.550781 27 46 27 Z M 58 27 C 57.449219 27 57 27.449219 57 28 C 57 28.550781 57.449219 29 58 29 C 58.550781 29 59 28.550781 59 28 C 59 27.449219 58.550781 27 58 27 Z M 22 31 C 21.449219 31 21 31.449219 21 32 C 21 32.550781 21.449219 33 22 33 C 22.550781 33 23 32.550781 23 32 C 23 31.449219 22.550781 31 22 31 Z M 34 31 C 33.449219 31 33 31.449219 33 32 C 33 32.550781 33.449219 33 34 33 C 34.550781 33 35 32.550781 35 32 C 35 31.449219 34.550781 31 34 31 Z M 46 31 C 45.449219 31 45 31.449219 45 32 C 45 32.550781 45.449219 33 46 33 C 46.550781 33 47 32.550781 47 32 C 47 31.449219 46.550781 31 46 31 Z M 58 31 C 57.449219 31 57 31.449219 57 32 C 57 32.550781 57.449219 33 58 33 C 58.550781 33 59 32.550781 59 32 C 59 31.449219 58.550781 31 58 31 Z M 22 35 C 21.449219 35 21 35.449219 21 36 C 21 36.550781 21.449219 37 22 37 C 22.550781 37 23 36.550781 23 36 C 23 35.449219 22.550781 35 22 35 Z M 34 35 C 33.449219 35 33 35.449219 33 36 C 33 36.550781 33.449219 37 34 37 C 34.550781 37 35 36.550781 35 36 C 35 35.449219 34.550781 35 34 35 Z M 46 35 C 45.449219 35 45 35.449219 45 36 C 45 36.550781 45.449219 37 46 37 C 46.550781 37 47 36.550781 47 36 C 47 35.449219 46.550781 35 46 35 Z M 58 35 C 57.449219 35 57 35.449219 57 36 C 57 36.550781 57.449219 37 58 37 C 58.550781 37 59 36.550781 59 36 C 59 35.449219 58.550781 35 58 35 Z M 22 39 C 21.449219 39 21 39.449219 21 40 C 21 40.550781 21.449219 41 22 41 C 22.550781 41 23 40.550781 23 40 C 23 39.449219 22.550781 39 22 39 Z M 34 39 C 33.449219 39 33 39.449219 33 40 C 33 40.550781 33.449219 41 34 41 C 34.550781 41 35 40.550781 35 40 C 35 39.449219 34.550781 39 34 39 Z M 46 39 C 45.449219 39 45 39.449219 45 40 C 45 40.550781 45.449219 41 46 41 C 46.550781 41 47 40.550781 47 40 C 47 39.449219 46.550781 39 46 39 Z M 58 39 C 57.449219 39 57 39.449219 57 40 C 57 40.550781 57.449219 41 58 41 C 58.550781 41 59 40.550781 59 40 C 59 39.449219 58.550781 39 58 39 Z M 22 43 C 21.449219 43 21 43.449219 21 44 C 21 44.550781 21.449219 45 22 45 C 22.550781 45 23 44.550781 23 44 C 23 43.449219 22.550781 43 22 43 Z M 34 43 C 33.449219 43 33 43.449219 33 44 C 33 44.550781 33.449219 45 34 45 C 34.550781 45 35 44.550781 35 44 C 35 43.449219 34.550781 43 34 43 Z M 46 43 C 45.449219 43 45 43.449219 45 44 C 45 44.550781 45.449219 45 46 45 C 46.550781 45 47 44.550781 47 44 C 47 43.449219 46.550781 43 46 43 Z M 58 43 C 57.449219 43 57 43.449219 57 44 C 57 44.550781 57.449219 45 58 45 C 58.550781 45 59 44.550781 59 44 C 59 43.449219 58.550781 43 58 43 Z M 22 47 C 21.449219 47 21 47.449219 21 48 C 21 48.550781 21.449219 49 22 49 C 22.550781 49 23 48.550781 23 48 C 23 47.449219 22.550781 47 22 47 Z M 34 47 C 33.449219 47 33 47.449219 33 48 C 33 48.550781 33.449219 49 34 49 C 34.550781 49 35 48.550781 35 48 C 35 47.449219 34.550781 47 34 47 Z M 46 47 C 45.449219 47 45 47.449219 45 48 C 45 48.550781 45.449219 49 46 49 C 46.550781 49 47 48.550781 47 48 C 47 47.449219 46.550781 47 46 47 Z M 58 47 C 57.449219 47 57 47.449219 57 48 C 57 48.550781 57.449219 49 58 49 C 58.550781 49 59 48.550781 59 48 C 59 47.449219 58.550781 47 58 47 Z M 22 51 C 21.449219 51 21 51.449219 21 52 C 21 52.550781 21.449219 53 22 53 C 22.550781 53 23 52.550781 23 52 C 23 51.449219 22.550781 51 22 51 Z M 34 51 C 33.449219 51 33 51.449219 33 52 C 33 52.550781 33.449219 53 34 53 C 34.550781 53 35 52.550781 35 52 C 35 51.449219 34.550781 51 34 51 Z M 46 51 C 45.449219 51 45 51.449219 45 52 C 45 52.550781 45.449219 53 46 53 C 46.550781 53 47 52.550781 47 52 C 47 51.449219 46.550781 51 46 51 Z M 58 51 C 57.449219 51 57 51.449219 57 52 C 57 52.550781 57.449219 53 58 53 C 58.550781 53 59 52.550781 59 52 C 59 51.449219 58.550781 51 58 51 Z M 22 55 C 21.449219 55 21 55.449219 21 56 C 21 56.550781 21.449219 57 22 57 C 22.550781 57 23 56.550781 23 56 C 23 55.449219 22.550781 55 22 55 Z M 34 55 C 33.449219 55 33 55.449219 33 56 C 33 56.550781 33.449219 57 34 57 C 34.550781 57 35 56.550781 35 56 C 35 55.449219 34.550781 55 34 55 Z M 46 55 C 45.449219 55 45 55.449219 45 56 C 45 56.550781 45.449219 57 46 57 C 46.550781 57 47 56.550781 47 56 C 47 55.449219 46.550781 55 46 55 Z M 58 55 C 57.449219 55 57 55.449219 57 56 C 57 56.550781 57.449219 57 58 57 C 58.550781 57 59 56.550781 59 56 C 59 55.449219 58.550781 55 58 55 Z M 22 59 C 21.449219 59 21 59.449219 21 60 C 21 60.550781 21.449219 61 22 61 C 22.550781 61 23 60.550781 23 60 C 23 59.449219 22.550781 59 22 59 Z M 34 59 C 33.449219 59 33 59.449219 33 60 C 33 60.550781 33.449219 61 34 61 C 34.550781 61 35 60.550781 35 60 C 35 59.449219 34.550781 59 34 59 Z M 46 59 C 45.449219 59 45 59.449219 45 60 C 45 60.550781 45.449219 61 46 61 C 46.550781 61 47 60.550781 47 60 C 47 59.449219 46.550781 59 46 59 Z M 58 59 C 57.449219 59 57 59.449219 57 60 C 57 60.550781 57.449219 61 58 61 C 58.550781 61 59 60.550781 59 60 C 59 59.449219 58.550781 59 58 59 Z"/></svg>